<svg width="24" height="16" viewBox="0 0 24 16" fill="none"
    xmlns="http://www.w3.org/2000/svg">
    <path d="M12 0C9.66551 0 7.70061 1.2495 6.42969 3.01367C2.88546 3.05389 0 5.9466 0 9.5C0 13.0783 2.92173 16 6.5 16H18.5C21.5256 16 24 13.5256 24 10.5C24 7.50964 21.577 5.0762 18.5996 5.01953C17.7299 2.14157 15.1521 0 12 0ZM12 2C14.5045 2 16.554 3.82549 16.9316 6.21484L17.084 7.17578L18.0488 7.05078C18.2722 7.0217 18.4149 7 18.5 7C20.4444 7 22 8.55558 22 10.5C22 12.4444 20.4444 14 18.5 14H13V10H16L12 6L8 10H11V14H6.5C4.00227 14 2 11.9977 2 9.5C2 7.00227 4.00227 5 6.5 5C6.53499 5 6.61646 5.00699 6.75 5.01367L7.36133 5.04492L7.66602 4.51367C8.53011 3.01235 10.1379 2 12 2Z" fill="black" fill-opacity="0.5"/>
</svg>
